<svg xmlns="http://www.w3.org/2000/svg" viewBox="0 0 17.08 17"><g id="Слой_2" data-name="Слой 2"><g id="Post-vk"><g id="Один_челик" data-name="Один челик"><path d="M6,16.15c0-2.63,0-5.27,0-7.9C8.33,6.59,9.28,3.17,9,.06c1.92-.45,2.47,1.79,2.38,3.61a17.32,17.32,0,0,1-.26,2.38c0,.21.11.43.3.4C12.71,6.29,17,5.78,17.08,8a3.13,3.13,0,0,1-.45,1.44.35.35,0,0,0,.05.39,1.42,1.42,0,0,1-.33,2.1c-.31.13-.16.48-.11.76.13.67,0,1.54-.6,1.81a.31.31,0,0,0-.15.29c0,1.25-.5,2.42-1.73,2.17H7.36c-.17,0-.11,0-.25-.08Z" style="fill:#b00062"/><path d="M4.66,12.33v3.84a1,1,0,0,1,0,.17.59.59,0,0,1-.54.57H.46A.64.64,0,0,1,0,16.27V8.49A1.28,1.28,0,0,1,0,8.3a.62.62,0,0,1,.55-.55H4a.58.58,0,0,1,.19,0,.66.66,0,0,1,.43.63v3.93Z" style="fill:#b00062"/></g></g></g></svg>