<svg xmlns="http://www.w3.org/2000/svg" viewBox="0 0 35 35"><g id="Слой_2" data-name="Слой 2"><g id="Post-vk"><g id="Один_челик" data-name="Один челик"><path d="M9.57,12.93A2.49,2.49,0,0,0,12,13c3.53-1.79,7-3.57,10.52-5.27.86-.43.67-1,.65-1.64A5.77,5.77,0,0,1,28,.11C34.08-1,37.61,6.74,32.65,10.47a6,6,0,0,1-7.06.08A2.52,2.52,0,0,0,23,10.33l-9.88,5a2.34,2.34,0,0,0-1.31,2.35c.16,1.3,1.2,2,2.67,2.71,2.94,1.31,5.78,2.83,8.55,4.25a2.49,2.49,0,0,0,2.34,0,10.74,10.74,0,0,1,2.24-1,5.8,5.8,0,1,1-4.42,5.64,2.16,2.16,0,0,0-1.48-2.36c-3.24-1.58-6.44-3.22-9.65-4.84a2.5,2.5,0,0,0-2.52.17c-6,4.07-12.71-3.44-7.9-8.67C3.79,11.31,6.59,11.1,9.57,12.93Z" style="fill:#b00062"/></g></g></g></svg>