<svg xmlns="http://www.w3.org/2000/svg" viewBox="0 0 35 37.22"><g id="Слой_2" data-name="Слой 2"><g id="SideMenuRight"><g id="Subscr"><path d="M22.3,23.89c2.26-4.59,2.2-7.79-.21-11.68a3.78,3.78,0,0,1,4.09-2.13c1.82.32,3.07,1.71,3.61,4A6.76,6.76,0,0,1,27.74,21c3.48,2.7,4.53,6.93,4.76,11.91-2,0-3.84,0-5.71,0-.21,0-.54-.46-.61-.78A17.87,17.87,0,0,0,22.3,23.89Z" style="fill:#b00062"/><path d="M12.85,12.23c-2.41,3.89-2.47,7.2-.21,11.64a18.33,18.33,0,0,0-4,9h-6c-.42-4,1.17-8.22,4.51-11.86-2.61-3.27-2.87-6.91-.68-9.47C8.31,9.26,11.19,9.56,12.85,12.23Z" style="fill:#b00062"/><path d="M8,35.72l.06-1.57c.24-5.37,1.48-8.42,4.78-11.36-2.54-3.66-2.67-7.91-.23-11.14a6.06,6.06,0,0,1,4.82-2.56,6.1,6.1,0,0,1,5,2.78,9.41,9.41,0,0,1-.39,11c3.28,2.88,4.49,5.85,4.79,11.32l.08,1.58Z" style="fill:#b00062"/><path d="M17.47,10.59a4.64,4.64,0,0,1,3.77,2.14C23.35,15.75,22.85,20,20,23c3.92,3,5.1,5.67,5.4,11.2H9.6C9.84,28.72,11.08,26,15,23c-2.94-3.35-3.37-7.48-1.12-10.47a4.56,4.56,0,0,1,3.63-2m0-3a7.56,7.56,0,0,0-6,3.16A10.64,10.64,0,0,0,11,22.54c-2.93,3-4.12,6.29-4.35,11.55l-.14,3.13H28.53l-.18-3.16c-.29-5.33-1.45-8.57-4.35-11.48A10.73,10.73,0,0,0,23.69,11a7.61,7.61,0,0,0-6.22-3.42Z" style="fill:#101010"/></g><path d="M32,3V32H3V3H32m3-3H0V35H35V0Z" style="fill:#b00062"/></g></g></svg>