<svg xmlns="http://www.w3.org/2000/svg" viewBox="0 0 35 35"><g id="Слой_2" data-name="Слой 2"><g id="SideMenuRight"><path d="M22.38,22.64c2.29-4.81,2.23-8.16-.22-12.24,1.07-1.83,2.49-2.54,4.17-2.23,1.84.34,3.12,1.79,3.67,4.15a7.24,7.24,0,0,1-2.09,7.26c3.54,2.84,4.61,7.26,4.84,12.48-2,0-3.91,0-5.8,0-.22,0-.55-.48-.62-.82A19.07,19.07,0,0,0,22.38,22.64Z" style="fill:#b00062"/><path d="M12.77,10.42c-2.45,4.08-2.51,7.55-.21,12.2A19.55,19.55,0,0,0,8.47,32H2.32c-.43-4.24,1.2-8.61,4.59-12.43C4.25,16.15,4,12.33,6.21,9.65,8.15,7.31,11.09,7.63,12.77,10.42Z" style="fill:#b00062"/><path d="M32,3V32H3V3H32m3-3H0V35H35V0Z" style="fill:#b00062"/></g></g></svg>