<svg xmlns="http://www.w3.org/2000/svg" viewBox="0 0 35 35"><g id="Слой_2" data-name="Слой 2"><g id="SideMenuLeft"><path d="M32,3V32H3V3H32m3-3H0V35H35V0Z" style="fill:#b00062"/><path d="M28.17,17.4v9.67c0,.41-.2.56-.74.56H21.05v.18c0,.79,0,1.58,0,2.38a.54.54,0,0,1-.46.56h-.28l-.19-.06-12.68-3a.86.86,0,0,1-.63-.37V6.59a.78.78,0,0,1,.49-.34H27.73a.58.58,0,0,1,.45.62q0,4.71,0,9.4v.21M25.1,26.2V8.35H11.36c.05,0,.1,0,.15,0,2.3.33,7,.33,8.92,1,.54.13.62.21.62.65V26.2H25.1Zm-9.33-7c-.34,0-.57.14-.63.34s.09.44.43.54l2.83.85a.67.67,0,0,0,.83-.24c.13-.24,0-.48-.39-.59L16,19.22A1.73,1.73,0,0,0,15.77,19.17Z" style="fill:#b00062"/></g></g></svg>