<svg xmlns="http://www.w3.org/2000/svg" viewBox="0 0 35 35"><g id="Слой_2" data-name="Слой 2"><g id="SideMenuLeft"><path d="M15.76,2.8H19.1c.16.33.33.65.47,1,.41,1,.8,1.91,1.21,2.86a.62.62,0,0,0,.26.27c.46.21.93.38,1.39.58a.51.51,0,0,0,.45,0c.66-.3,1.32-.61,2-.9s1.07-.42,1.6-.63a.31.31,0,0,1,.37.1l1.61,1.61c.62.63.62.63.27,1.46-.42,1-.84,2.06-1.25,3.1a.33.33,0,0,0,0,.22c.21.52.43,1.05.65,1.57a.37.37,0,0,0,.18.17l3.91,1.59v3.32c-.29.14-.57.3-.86.43l-3.05,1.29a.35.35,0,0,0-.17.17c-.22.51-.44,1-.64,1.55a.33.33,0,0,0,0,.24c.16.39.35.77.51,1.16l1.05,2.54a.28.28,0,0,1-.08.36c-.55.53-1.09,1.08-1.63,1.62s-.59.61-1.35.31c-1-.39-2-.82-3-1.23a.68.68,0,0,0-.44,0c-.51.18-1,.4-1.5.61a.35.35,0,0,0-.19.19L19.24,32.2H15.9c-.11-.22-.23-.43-.32-.66-.46-1.06-.9-2.12-1.36-3.18a.59.59,0,0,0-.27-.27c-.46-.21-.93-.4-1.41-.58a.52.52,0,0,0-.37,0c-.46.19-.9.41-1.36.6-.76.32-1.53.64-2.31.94A.33.33,0,0,1,8.2,29c-.7-.69-1.4-1.38-2.08-2.08A.38.38,0,0,1,6,26.61a4.79,4.79,0,0,1,.24-.73l1.26-3.1a.41.41,0,0,0,0-.22c-.21-.52-.42-1-.64-1.54a.39.39,0,0,0-.19-.19L2.8,19.23V15.91c.29-.14.57-.3.86-.43l3-1.28A.37.37,0,0,0,6.88,14c.22-.51.43-1,.64-1.55a.33.33,0,0,0,0-.24c-.16-.38-.34-.76-.5-1.14L6,8.58a.34.34,0,0,1,.09-.42c.68-.66,1.35-1.34,2-2A.35.35,0,0,1,8.44,6l.82.29,2.89,1.18a.55.55,0,0,0,.36,0c.49-.19,1-.4,1.48-.61a.37.37,0,0,0,.18-.19C14.71,5.41,15.23,4.1,15.76,2.8Zm6.45,14.71a4.71,4.71,0,1,0-4.72,4.7A4.72,4.72,0,0,0,22.21,17.51Z" style="fill:#b00062"/><path d="M32,3V32H3V3H32m3-3H0V35H35V0Z" style="fill:#b00062"/></g></g></svg>