<svg xmlns="http://www.w3.org/2000/svg" viewBox="0 0 35 35"><g id="Слой_2" data-name="Слой 2"><g id="SideMenuLeft"><path d="M29,7.48V8.2a1.33,1.33,0,0,0-.09.21Q27,18.25,25,28.09c-.19.92-.74,1.17-1.4.62L22.09,27.4,18,23.91,15.13,27c-.63.68-1.14.52-1.4-.42-.61-2.26-1.23-4.52-1.82-6.78a1,1,0,0,0-.69-.83c-1.45-.49-2.9-1-4.33-1.58A4.14,4.14,0,0,1,6,16.71v-.59a4,4,0,0,1,.79-.6q9.9-4.63,19.82-9.24C27.86,5.69,28.49,6,29,7.48ZM14.26,25l.09,0c.15-1,.33-2,.43-3a3.39,3.39,0,0,1,1-2.16c3.6-3.71,7.15-7.46,10.73-11.2a1.84,1.84,0,0,1,.41-.24l-.16-.19q-6.84,5.28-13.68,10.56a.74.74,0,0,0-.15.57c.36,1.6.74,3.19,1.12,4.79Z" style="fill:#b00062"/><path d="M32,3V32H3V3H32m3-3H0V35H35V0Z" style="fill:#b00062"/></g></g></svg>